# xmcd
#
# Track frame offsets:
#	150
#	16463
#	29144
#	38295
#	47788
#	61144
#	74925
#	84227
#	100108
#	116332
#
# Disc length: 1728 seconds
#
# Revision: 1
# Processed by: cddbd v1.5.2PL0 Copyright (c) Steve Scherf et al.
# Submitted via: EasyCDDAExtractor 2010.4.0.0
#
DISCID=7e06be0a
DTITLE=Solomon King - Medicine
DYEAR=2010
DGENRE=Blues
TTITLE0=Medicine
TTITLE1=My Baby Does Me Good
TTITLE2=Make You Mine
TTITLE3=Little Wheel
TTITLE4=Don't You Love Me No More
TTITLE5=Closer
TTITLE6=Cinnamon Rose
TTITLE7=Bucket
TTITLE8=Trouble
TTITLE9=Be My Baby
EXTD=
EXTT0=
EXTT1=
EXTT2=
EXTT3=
EXTT4=
EXTT5=
EXTT6=
EXTT7=
EXTT8=
EXTT9=
PLAYORDER=
